<svg width="10" height="10" viewBox="0 0 10 10" fill="none" xmlns="http://www.w3.org/2000/svg">
<path id="Icon" d="M-2.18557e-07 5C-1.75331e-07 5.98891 0.293245 6.9556 0.842652 7.77785C1.39206 8.60009 2.17295 9.24096 3.08658 9.6194C4.00021 9.99783 5.00555 10.0969 5.97545 9.90392C6.94536 9.711 7.83627 9.23479 8.53553 8.53553C9.23479 7.83627 9.711 6.94535 9.90392 5.97545C10.0969 5.00554 9.99783 4.00021 9.61939 3.08658C9.24096 2.17295 8.60009 1.39206 7.77785 0.842651C6.9556 0.293244 5.9889 -2.61783e-07 5 -2.18557e-07C3.6747 0.00254138 2.4044 0.530142 1.46727 1.46727C0.530141 2.4044 0.00254106 3.6747 -2.18557e-07 5ZM4.68269 2.98558L6.60577 4.71635C6.64512 4.75238 6.67654 4.7962 6.69804 4.84504C6.71953 4.89387 6.73063 4.94664 6.73063 5C6.73063 5.05335 6.71953 5.10613 6.69804 5.15496C6.67654 5.20379 6.64512 5.24762 6.60577 5.28365L4.68269 7.01442C4.60706 7.0807 4.50847 7.11471 4.40806 7.10918C4.30765 7.10365 4.21339 7.05901 4.1455 6.98482C4.0776 6.91064 4.04146 6.81281 4.04482 6.7123C4.04818 6.6118 4.09076 6.5166 4.16346 6.44711L5.76923 5L4.16346 3.55288C4.12494 3.51913 4.09356 3.47804 4.07114 3.43199C4.04872 3.38595 4.03572 3.3359 4.0329 3.28477C4.03008 3.23364 4.0375 3.18246 4.05473 3.13423C4.07196 3.08601 4.09864 3.04171 4.13321 3.00393C4.16779 2.96616 4.20956 2.93566 4.25607 2.91425C4.30259 2.89283 4.35291 2.88092 4.40409 2.87921C4.45527 2.8775 4.50628 2.88603 4.55412 2.90429C4.60196 2.92256 4.64567 2.95019 4.68269 2.98558Z" fill="#181818"/>
</svg>
